<svg xmlns="http://www.w3.org/2000/svg" xmlns:xlink="http://www.w3.org/1999/xlink" width="500" zoomAndPan="magnify" viewBox="0 0 375 374.999991" height="500" preserveAspectRatio="xMidYMid meet" version="1.0"><defs><clipPath id="f48e5e4eda"><path d="M 56.3125 56.3125 L 318.8125 56.3125 L 318.8125 318.8125 L 56.3125 318.8125 Z M 56.3125 56.3125 " clip-rule="nonzero"/></clipPath></defs><g clip-path="url(#f48e5e4eda)"><path fill="#673ab7" d="M 318.8125 282.355469 C 318.8125 302.496094 302.496094 318.8125 282.355469 318.8125 L 92.773438 318.8125 C 72.640625 318.8125 56.3125 302.496094 56.3125 282.355469 L 56.3125 92.773438 C 56.3125 72.632812 72.640625 56.3125 92.773438 56.3125 L 282.355469 56.3125 C 302.496094 56.3125 318.8125 72.632812 318.8125 92.773438 Z M 318.8125 282.355469 " fill-opacity="1" fill-rule="nonzero"/></g><path fill="#ffffff" d="M 253.40625 199.230469 C 248.667969 192.667969 241.8125 188.148438 232.992188 185.742188 C 232.992188 185.742188 240.429688 183.042969 247.136719 172.980469 C 251.148438 166.5625 253.1875 158.835938 253.1875 149.792969 C 253.1875 134.117188 247.5 122.085938 236.125 113.84375 C 224.75 105.605469 211.917969 100.0625 190.117188 100.0625 L 121.9375 100.0625 L 121.9375 275.0625 L 197.992188 275.0625 C 218.625 274.917969 234.15625 270.46875 244.730469 261.9375 C 255.230469 253.261719 260.480469 240.429688 260.480469 223.292969 C 260.480469 213.8125 258.148438 205.792969 253.40625 199.230469 Z M 165.6875 129.230469 C 165.6875 129.230469 196.09375 129.230469 196.679688 129.230469 C 207.761719 129.230469 216.730469 138.199219 216.730469 149.28125 C 216.730469 160.367188 207.761719 169.335938 196.679688 169.335938 C 196.09375 169.335938 165.6875 169.335938 165.6875 169.335938 Z M 202.148438 245.898438 L 165.6875 245.898438 L 165.6875 202.148438 L 202.148438 202.148438 C 214.25 202.148438 224.023438 211.917969 224.023438 224.023438 C 224.023438 236.125 214.25 245.898438 202.148438 245.898438 Z M 202.148438 245.898438 " fill-opacity="1" fill-rule="nonzero"/></svg>