<svg xmlns="http://www.w3.org/2000/svg" xmlns:xlink="http://www.w3.org/1999/xlink" width="500" zoomAndPan="magnify" viewBox="0 0 375 374.999991" height="500" preserveAspectRatio="xMidYMid meet" version="1.0"><defs><clipPath id="6ab03d60fc"><path d="M 74.441406 90 L 300.191406 90 L 300.191406 346.808594 L 74.441406 346.808594 Z M 74.441406 90 " clip-rule="nonzero"/></clipPath><clipPath id="c6ea0f6842"><path d="M 127 28.058594 L 162 28.058594 L 162 72 L 127 72 Z M 127 28.058594 " clip-rule="nonzero"/></clipPath><clipPath id="743ffaaaaa"><path d="M 168 28.058594 L 203 28.058594 L 203 72 L 168 72 Z M 168 28.058594 " clip-rule="nonzero"/></clipPath><clipPath id="3c9627b9d4"><path d="M 209 28.058594 L 244 28.058594 L 244 72 L 209 72 Z M 209 28.058594 " clip-rule="nonzero"/></clipPath></defs><g clip-path="url(#6ab03d60fc)"><path fill="#264de4" d="M 187.21875 346.796875 L 95.113281 321.199219 L 74.585938 90.699219 L 300.121094 90.695312 L 279.585938 321.160156 L 187.222656 346.792969 Z M 187.21875 346.796875 " fill-opacity="1" fill-rule="nonzero"/></g><path fill="#2965f1" d="M 261.996094 306.488281 L 279.554688 109.546875 L 187.359375 109.542969 L 187.359375 327.199219 L 261.996094 306.484375 Z M 261.996094 306.488281 " fill-opacity="1" fill-rule="nonzero"/><path fill="#ebebeb" d="M 121.644531 195.035156 L 124.171875 223.300781 L 187.359375 223.300781 L 187.359375 195.035156 Z M 121.644531 195.035156 " fill-opacity="1" fill-rule="nonzero"/><path fill="#ebebeb" d="M 116.558594 137.808594 L 119.125 166.082031 L 187.359375 166.082031 L 187.359375 137.808594 Z M 116.558594 137.808594 " fill-opacity="1" fill-rule="nonzero"/><path fill="#ebebeb" d="M 187.359375 268.453125 L 187.234375 268.488281 L 155.789062 259.980469 L 153.78125 237.433594 L 125.433594 237.433594 L 129.390625 281.828125 L 187.226562 297.902344 L 187.359375 297.867188 Z M 187.359375 268.453125 " fill-opacity="1" fill-rule="nonzero"/><g clip-path="url(#c6ea0f6842)"><path fill="#000000" d="M 127.667969 28.058594 L 161.867188 28.058594 L 161.867188 42.375 L 141.96875 42.375 L 141.96875 56.695312 L 161.867188 56.695312 L 161.867188 71.011719 L 127.667969 71.011719 Z M 127.667969 28.058594 " fill-opacity="1" fill-rule="nonzero"/></g><g clip-path="url(#743ffaaaaa)"><path fill="#000000" d="M 168.703125 28.058594 L 202.902344 28.058594 L 202.902344 40.507812 L 183.011719 40.507812 L 183.011719 42.996094 L 202.902344 42.996094 L 202.902344 71.636719 L 168.703125 71.636719 L 168.703125 58.5625 L 188.605469 58.5625 L 188.605469 56.070312 L 168.703125 56.070312 Z M 168.703125 28.058594 " fill-opacity="1" fill-rule="nonzero"/></g><g clip-path="url(#3c9627b9d4)"><path fill="#000000" d="M 209.746094 28.058594 L 243.941406 28.058594 L 243.941406 40.507812 L 224.042969 40.507812 L 224.042969 42.996094 L 243.941406 42.996094 L 243.941406 71.636719 L 209.746094 71.636719 L 209.746094 58.5625 L 229.636719 58.5625 L 229.636719 56.070312 L 209.746094 56.070312 Z M 209.746094 28.058594 " fill-opacity="1" fill-rule="nonzero"/></g><path fill="#ffffff" d="M 252.898438 195.035156 L 257.992188 137.808594 L 187.261719 137.808594 L 187.261719 166.082031 L 227.046875 166.082031 L 224.484375 195.035156 L 187.261719 195.035156 L 187.261719 223.300781 L 222.035156 223.300781 L 218.753906 259.964844 L 187.261719 268.476562 L 187.261719 297.882812 L 245.144531 281.828125 L 245.570312 277.046875 L 252.207031 202.621094 Z M 252.898438 195.035156 " fill-opacity="1" fill-rule="nonzero"/></svg>