<svg xmlns="http://www.w3.org/2000/svg" xmlns:xlink="http://www.w3.org/1999/xlink" width="500" zoomAndPan="magnify" viewBox="0 0 375 374.999991" height="500" preserveAspectRatio="xMidYMid meet" version="1.0"><defs><clipPath id="26e9413d01"><path d="M 74.464844 90 L 300.214844 90 L 300.214844 346.84375 L 74.464844 346.84375 Z M 74.464844 90 " clip-rule="nonzero"/></clipPath><clipPath id="872a6b1d1b"><path d="M 95 28.09375 L 138 28.09375 L 138 72 L 95 72 Z M 95 28.09375 " clip-rule="nonzero"/></clipPath><clipPath id="fa4070d65b"><path d="M 143 28.09375 L 184 28.09375 L 184 72 L 143 72 Z M 143 28.09375 " clip-rule="nonzero"/></clipPath><clipPath id="1f83040f06"><path d="M 189 28.09375 L 238 28.09375 L 238 72 L 189 72 Z M 189 28.09375 " clip-rule="nonzero"/></clipPath><clipPath id="9dfbbb0eee"><path d="M 245 28.09375 L 280 28.09375 L 280 72 L 245 72 Z M 245 28.09375 " clip-rule="nonzero"/></clipPath></defs><g clip-path="url(#26e9413d01)"><path fill="#e44d26" d="M 300.152344 90.730469 L 279.605469 321.195312 L 187.242188 346.828125 L 95.136719 321.230469 L 74.613281 90.730469 L 300.15625 90.730469 Z M 300.152344 90.730469 " fill-opacity="1" fill-rule="nonzero"/></g><path fill="#f16529" d="M 187.382812 327.234375 L 262.019531 306.523438 L 279.578125 109.582031 L 187.382812 109.578125 Z M 187.382812 327.234375 " fill-opacity="1" fill-rule="nonzero"/><path fill="#ebebeb" d="M 147.441406 166.117188 L 187.382812 166.117188 L 187.382812 137.84375 L 116.582031 137.84375 L 117.257812 145.429688 L 124.199219 223.335938 L 187.382812 223.335938 L 187.382812 195.070312 L 150.023438 195.070312 Z M 147.441406 166.117188 " fill-opacity="1" fill-rule="nonzero"/><path fill="#ebebeb" d="M 153.804688 237.46875 L 125.460938 237.46875 L 129.417969 281.863281 L 187.253906 297.9375 L 187.382812 297.902344 L 187.382812 268.488281 L 187.261719 268.523438 L 155.816406 260.015625 Z M 153.804688 237.46875 " fill-opacity="1" fill-rule="nonzero"/><g clip-path="url(#872a6b1d1b)"><path fill="#000000" d="M 95.597656 28.09375 L 109.949219 28.09375 L 109.949219 42.285156 L 123.074219 42.285156 L 123.074219 28.09375 L 137.421875 28.09375 L 137.421875 71.074219 L 123.074219 71.074219 L 123.074219 56.679688 L 109.949219 56.679688 L 109.949219 71.074219 L 95.597656 71.074219 Z M 95.597656 28.09375 " fill-opacity="1" fill-rule="nonzero"/></g><g clip-path="url(#fa4070d65b)"><path fill="#000000" d="M 156.292969 42.347656 L 143.660156 42.347656 L 143.660156 28.09375 L 183.28125 28.09375 L 183.28125 42.347656 L 170.640625 42.347656 L 170.640625 71.074219 L 156.292969 71.074219 Z M 156.292969 42.347656 " fill-opacity="1" fill-rule="nonzero"/></g><g clip-path="url(#1f83040f06)"><path fill="#000000" d="M 189.566406 28.09375 L 204.527344 28.09375 L 213.730469 43.195312 L 222.925781 28.09375 L 237.894531 28.09375 L 237.894531 71.074219 L 223.605469 71.074219 L 223.605469 49.769531 L 213.730469 65.050781 L 213.484375 65.050781 L 203.609375 49.769531 L 203.609375 71.074219 L 189.566406 71.074219 Z M 189.566406 28.09375 " fill-opacity="1" fill-rule="nonzero"/></g><g clip-path="url(#9dfbbb0eee)"><path fill="#000000" d="M 245.035156 28.09375 L 259.386719 28.09375 L 259.386719 56.867188 L 279.570312 56.867188 L 279.570312 71.074219 L 245.035156 71.074219 Z M 245.035156 28.09375 " fill-opacity="1" fill-rule="nonzero"/></g><path fill="#ffffff" d="M 187.289062 223.335938 L 222.058594 223.335938 L 218.777344 260 L 187.289062 268.511719 L 187.289062 297.917969 L 245.167969 281.863281 L 245.59375 277.082031 L 252.234375 202.65625 L 252.921875 195.070312 L 187.289062 195.070312 Z M 187.289062 223.335938 " fill-opacity="1" fill-rule="nonzero"/><path fill="#ffffff" d="M 187.289062 166.046875 L 187.289062 166.117188 L 255.488281 166.117188 L 256.050781 159.761719 L 257.34375 145.429688 L 258.015625 137.84375 L 187.289062 137.84375 Z M 187.289062 166.046875 " fill-opacity="1" fill-rule="nonzero"/></svg>
