<svg xmlns="http://www.w3.org/2000/svg" xmlns:xlink="http://www.w3.org/1999/xlink" width="500" zoomAndPan="magnify" viewBox="0 0 375 374.999991" height="500" preserveAspectRatio="xMidYMid meet" version="1.0"><defs><clipPath id="421a2f15a5"><path d="M 56.3125 56.3125 L 318.8125 56.3125 L 318.8125 318.8125 L 56.3125 318.8125 Z M 56.3125 56.3125 " clip-rule="nonzero"/></clipPath></defs><g clip-path="url(#421a2f15a5)"><path fill="#ffd600" d="M 56.3125 56.3125 L 318.8125 56.3125 L 318.8125 318.8125 L 56.3125 318.8125 Z M 56.3125 56.3125 " fill-opacity="1" fill-rule="nonzero"/></g><path fill="#000001" d="M 227.945312 252.800781 C 232.992188 260.996094 238.472656 268.851562 250.089844 268.851562 C 259.847656 268.851562 264.964844 264.003906 264.964844 257.292969 C 264.964844 249.265625 259.671875 246.414062 248.9375 241.742188 L 243.054688 239.230469 C 226.070312 232.027344 214.777344 223 214.777344 203.933594 C 214.777344 186.359375 228.230469 172.988281 249.25 172.988281 C 264.222656 172.988281 274.976562 178.171875 282.734375 191.75 L 264.402344 203.46875 C 260.371094 196.261719 256.011719 193.425781 249.25 193.425781 C 242.351562 193.425781 237.984375 197.78125 237.984375 203.46875 C 237.984375 210.496094 242.359375 213.339844 252.460938 217.691406 L 258.34375 220.203125 C 278.359375 228.726562 289.648438 237.429688 289.648438 257.003906 C 289.648438 278.089844 272.992188 289.648438 250.636719 289.648438 C 228.769531 289.648438 216.351562 278.671875 209.4375 265.089844 Z M 143.464844 253.398438 C 147.152344 260.007812 152.761719 265.089844 160.824219 265.089844 C 168.539062 265.089844 172.980469 262.039062 172.980469 250.191406 L 172.980469 172.980469 L 197.285156 172.980469 L 197.285156 253.925781 C 197.285156 278.476562 183.042969 289.648438 162.246094 289.648438 C 143.457031 289.648438 129.894531 276.914062 124.367188 265.089844 Z M 143.464844 253.398438 " fill-opacity="1" fill-rule="nonzero"/></svg>